<?xml version="1.0" standalone="no"?>
<!DOCTYPE svg PUBLIC "-//W3C//DTD SVG 20010904//EN"
 "http://www.w3.org/TR/2001/REC-SVG-20010904/DTD/svg10.dtd">
<svg version="1.0" xmlns="http://www.w3.org/2000/svg"
 width="300.000000pt" height="300.000000pt" viewBox="0 0 300.000000 300.000000"
 preserveAspectRatio="xMidYMid meet">
<metadata>
Created by potrace 1.11, written by Peter Selinger 2001-2013
</metadata>
<g transform="translate(0.000000,300.000000) scale(0.100000,-0.100000)"
fill="#000000" stroke="none">
<path d="M0 1500 l0 -1500 1500 0 1500 0 0 1500 0 1500 -1500 0 -1500 0 0
-1500z m2140 780 l0 -60 -105 0 -105 0 0 -710 0 -710 105 0 105 0 0 -55 0 -55
-665 0 -665 0 0 205 0 205 70 0 70 0 0 -140 0 -140 375 0 375 0 0 700 0 700
-105 0 -105 0 0 60 0 60 325 0 325 0 0 -60z"/>
</g>
</svg>
